<?xml version="1.0" encoding="utf-8"?>
<!-- Generator: Adobe Illustrator 28.3.0, SVG Export Plug-In . SVG Version: 6.00 Build 0)  -->
<svg version="1.1" id="Layer_1" xmlns="http://www.w3.org/2000/svg" xmlns:xlink="http://www.w3.org/1999/xlink" x="0px" y="0px"
	 viewBox="0 0 256 256" style="enable-background:new 0 0 256 256;" xml:space="preserve">
<style type="text/css">
	.st0{fill:#2485BC;}
	.st1{clip-path:url(#SVGID_00000072990876559649009750000012365085080441776299_);}
	.st2{fill-rule:evenodd;clip-rule:evenodd;fill:#FFFFFF;filter:url(#Adobe_OpacityMaskFilter);}
	.st3{mask:url(#mask0_00000065794067712074518730000016276186819312248731_);}
	.st4{fill:#D9D9D9;}
	.st5{fill:#E6E6E6;}
	.st6{fill:#FFFFFF;}
	.st7{opacity:0.25;}
	
		.st8{opacity:0.25;fill-rule:evenodd;clip-rule:evenodd;fill:url(#SVGID_00000118373597520131529260000001519362733811511742_);enable-background:new    ;}
</style>
<path class="st0" d="M60,0h136c33.1,0,60,26.9,60,60v136c0,33.1-26.9,60-60,60H60c-33.1,0-60-26.9-60-60V60C0,26.9,26.9,0,60,0z"/>
<g>
	<defs>
		<rect id="SVGID_1_" x="29.9" y="29.9" width="196.2" height="196.2"/>
	</defs>
	<clipPath id="SVGID_00000012445364018539279300000001300547215971283385_">
		<use xlink:href="#SVGID_1_"  style="overflow:visible;"/>
	</clipPath>
	<g style="clip-path:url(#SVGID_00000012445364018539279300000001300547215971283385_);">
		<g>
			<defs>
				<filter id="Adobe_OpacityMaskFilter" filterUnits="userSpaceOnUse" x="29.8" y="29.9" width="196.3" height="196.2">
					<feColorMatrix  type="matrix" values="1 0 0 0 0  0 1 0 0 0  0 0 1 0 0  0 0 0 1 0"/>
				</filter>
			</defs>
			
				<mask maskUnits="userSpaceOnUse" x="29.8" y="29.9" width="196.3" height="196.2" id="mask0_00000065794067712074518730000016276186819312248731_">
				<path class="st2" d="M169,225.3c3.1,1.2,6.6,1.1,9.7-0.4l40.4-19.5c4.2-2.1,6.9-6.4,6.9-11.1V61.8c0-4.7-2.7-9.1-6.9-11.1
					l-40.4-19.5c-4.1-2-8.9-1.5-12.5,1.1c-0.5,0.4-1,0.8-1.5,1.3l-77.3,70.9L53.8,78.7c-3.1-2.4-7.5-2.2-10.4,0.5l-10.8,9.9
					c-3.6,3.3-3.6,8.9,0,12.2L61.8,128l-29.2,26.8c-3.6,3.3-3.6,8.9,0,12.2l10.8,9.9c2.9,2.7,7.3,2.9,10.4,0.5l33.7-25.7l77.3,70.9
					C166,223.7,167.5,224.7,169,225.3z M177.1,83.2L118.4,128l58.7,44.8V83.2z"/>
			</mask>
			<g class="st3">
				<path class="st4" d="M219.2,50.7l-40.4-19.6c-4.7-2.3-10.3-1.3-13.9,2.4L32.4,154.8c-3.6,3.3-3.6,8.9,0,12.2l10.8,9.9
					c2.9,2.7,7.3,2.9,10.4,0.5L213.1,55.8c5.3-4.1,13-0.2,13,6.5v-0.5C226.1,57.1,223.4,52.7,219.2,50.7z"/>
				<g>
					<path class="st5" d="M219.2,205.3l-40.4,19.6c-4.7,2.3-10.3,1.3-13.9-2.4L32.4,101.2c-3.6-3.3-3.6-8.9,0-12.2l10.8-9.9
						c2.9-2.7,7.3-2.9,10.4-0.5l159.4,121.5c5.3,4.1,13,0.2,13-6.5v0.5C226.1,198.9,223.4,203.3,219.2,205.3z"/>
				</g>
				<g>
					<path class="st6" d="M178.7,224.9c-4.7,2.3-10.3,1.3-13.9-2.4c4.5,4.5,12.3,1.3,12.3-5.1V38.6c0-6.4-7.7-9.7-12.3-5.1
						c3.7-3.7,9.3-4.6,13.9-2.4l40.4,19.5c4.2,2.1,6.9,6.4,6.9,11.1v132.5c0,4.7-2.7,9.1-6.9,11.1L178.7,224.9z"/>
				</g>
				<g class="st7">
					
						<linearGradient id="SVGID_00000135649487809908073190000006429540861824380316_" gradientUnits="userSpaceOnUse" x1="127.8799" y1="225.9902" x2="127.8799" y2="29.7899" gradientTransform="matrix(1 0 0 -1 0 255.8898)">
						<stop  offset="0" style="stop-color:#FFFFFF"/>
						<stop  offset="1" style="stop-color:#FFFFFF;stop-opacity:0"/>
					</linearGradient>
					
						<path style="opacity:0.25;fill-rule:evenodd;clip-rule:evenodd;fill:url(#SVGID_00000135649487809908073190000006429540861824380316_);enable-background:new    ;" d="
						M168.9,225.3c3.1,1.2,6.6,1.1,9.7-0.4l40.4-19.5c4.2-2.1,6.9-6.4,6.9-11.1V61.8c0-4.7-2.7-9.1-6.9-11.1l-40.4-19.5
						c-4.1-2-8.9-1.5-12.5,1.1c-0.5,0.4-1,0.8-1.5,1.3l-77.3,70.9L53.7,78.7c-3.1-2.4-7.5-2.2-10.4,0.5l-10.8,9.9
						c-3.6,3.3-3.6,8.9,0,12.2L61.7,128l-29.2,26.8c-3.6,3.3-3.6,8.9,0,12.2l10.8,9.9c2.9,2.7,7.3,2.9,10.4,0.5l33.7-25.7l77.3,70.9
						C165.9,223.7,167.4,224.7,168.9,225.3z M177,83.2L118.3,128l58.7,44.8V83.2z"/>
				</g>
			</g>
		</g>
	</g>
</g>
</svg>
